<?xml version="1.0" standalone="no"?><!DOCTYPE svg PUBLIC "-//W3C//DTD SVG 1.1//EN" "http://www.w3.org/Graphics/SVG/1.1/DTD/svg11.dtd"><svg t="1602751052572" class="icon" viewBox="0 0 1024 1024" version="1.1" xmlns="http://www.w3.org/2000/svg" p-id="11281" xmlns:xlink="http://www.w3.org/1999/xlink" width="200" height="200"><defs><style type="text/css"></style></defs><path d="M877.308 600.328c-50.892 193.51-212.659 230.91-212.659 230.91s29.931-27.5 47.252-70.046 20.458-80.931-13.184-166S517.443 408.5 517.443 408.5c26.239-79.377 82.421-145.793 165.407-160.862 42.833-7.778 68.6-4.634 91.884 11.926-6.803-4.839 161.886 115.23 102.574 340.764z m-237.97-381.061c-45.452 9.354-79.542 28.056-132.569 102.872s-56.816 252.5-56.816 252.5c-81.439 22.445-168.555 13.094-227.265-46.759-30.3-30.892-41.938-53.811-40.894-82.132-0.305 8.275 7.344-196.944 230.28-273.241 191.28-65.463 312.487 46.759 312.487 46.759s-39.77-9.351-85.223 0.001z m-274.13 405.87c91.661 12.064 253.133-66.389 253.133-66.389C676 619.823 707.682 700.512 680.9 779.533c-13.826 40.787-29.075 61.537-55.014 73.655 7.58-3.54-180.423 84.2-351.607-76.162C127.4 639.437 172.5 481.517 172.5 481.517s9.9 39.174 39.221 74.724 61.827 56.832 153.487 68.896z" fill="#13227a" p-id="11282"></path></svg>