<?xml version="1.0" standalone="no"?><!DOCTYPE svg PUBLIC "-//W3C//DTD SVG 1.1//EN" "http://www.w3.org/Graphics/SVG/1.1/DTD/svg11.dtd"><svg t="1602812591642" class="icon" viewBox="0 0 1024 1024" version="1.1" xmlns="http://www.w3.org/2000/svg" p-id="7536" width="48" height="48" xmlns:xlink="http://www.w3.org/1999/xlink"><defs><style type="text/css"></style></defs><path d="M205.70976 737.056c-29.184 0-55.648-23.904-55.648-52.896s23.904-53.024 55.68-53.024c31.904 0 55.904 23.904 55.904 52.992s-26.528 52.896-55.936 52.96z m683.168-288.544c-5.76-42.336-32-76.8-66.56-103.264l-13.44-10.656-10.848 13.216c-21.088 23.904-29.44 66.272-26.88 97.92 2.56 23.968 10.24 47.776 23.648 66.304-10.848 5.536-24.224 10.656-34.56 16.096-24.32 7.968-47.968 10.656-71.68 10.656H4.17376l-2.56 15.776a297.856 297.856 0 0 0 23.968 151.04l10.4 18.56v2.56c64 105.952 177.92 153.6 301.984 153.6 238.688 0 434.432-103.264 527.232-325.664 60.8 2.656 122.208-13.216 151.04-71.52l7.68-13.216-12.8-7.968c-34.56-21.088-81.92-23.904-121.6-13.216z m-341.664-42.336h-103.584v103.264h103.68v-103.328z m0-129.824h-103.584v103.264h103.68V276.48z m0-132.448h-103.584v103.264h103.68V143.904z m126.72 262.272H570.92576v103.264h103.264v-103.328z m-383.936 0H187.05376v103.264h103.328v-103.328z m129.28 0h-102.4v103.264h103.008v-103.328z m-257.28 0H59.75776v103.264h103.584v-103.328z m257.28-129.824h-102.4v103.264h103.008V276.48z m-129.92 0H187.21376v103.264h102.944V276.48z" fill="#1488C6" p-id="7537"></path></svg>