<?xml version="1.0" standalone="no"?><!DOCTYPE svg PUBLIC "-//W3C//DTD SVG 1.1//EN" "http://www.w3.org/Graphics/SVG/1.1/DTD/svg11.dtd"><svg t="1602754697515" class="icon" viewBox="0 0 1024 1024" version="1.1" xmlns="http://www.w3.org/2000/svg" p-id="2671" width="48" height="48" xmlns:xlink="http://www.w3.org/1999/xlink"><defs><style type="text/css"></style></defs><path d="M993.28 533.504c0-81.237333-50.858667-153.941333-127.317333-181.589333 3.413333-17.408 5.12-34.816 5.12-52.565334 0-152.917333-123.904-276.48-276.138667-276.48-89.088 0-172.032 42.666667-223.914667 114.346667-25.6-19.797333-57.344-30.72-89.770666-30.72-80.896 0-146.773333 65.877333-146.773334 146.773333 0 17.749333 3.413333 35.157333 9.216 51.2-76.8 27.648-128 100.352-128.341333 181.930667 0 81.578667 50.858667 154.282667 127.658667 181.930667-3.413333 17.408-5.12 34.816-5.12 52.565333 0 152.234667 123.562667 275.456 275.797333 275.797333 89.088 0 172.032-43.008 223.573333-115.029333 25.6 20.138667 57.002667 31.402667 89.770667 31.402667 80.896 0 146.773333-65.877333 146.773333-146.773334 0-17.749333-3.413333-35.157333-9.216-51.2 77.141333-27.306667 128.341333-100.010667 128.682667-181.589333" fill="#FFFFFF" p-id="2672"></path><path d="M399.701333 442.709333l214.016 97.621334 215.722667-189.44c3.072-15.701333 4.778667-31.744 4.437333-47.445334-0.341333-133.12-108.202667-241.322667-241.322666-241.322666-79.530667 0-153.941333 39.253333-198.997334 105.130666l-35.84 186.368 41.984 89.088z" fill="#FED10A" p-id="2673"></path><path d="M178.176 669.013333c-3.072 16.042667-4.778667 32.085333-4.437333 48.469334 0 133.461333 108.885333 242.005333 242.346666 242.005333 80.213333 0 154.965333-39.594667 200.021334-105.813333l35.498666-185.685334L604.16 576.853333l-215.04-97.962666L178.176 669.013333z" fill="#24BBB1" p-id="2674"></path><path d="M176.810667 298.666667l146.773333 34.816 32.085333-166.570667C335.872 151.552 310.954667 143.36 285.354667 143.36c-63.829333 0-115.712 51.882667-115.712 115.712 0 13.312 2.389333 26.965333 7.168 39.594667" fill="#EF5098" p-id="2675"></path><path d="M164.181333 333.824c-65.194667 21.504-111.274667 84.309333-111.274666 153.258667 0 67.242667 41.642667 127.317333 104.106666 151.210666l205.824-186.026666-37.546666-80.554667-161.109334-37.888z" fill="#17A8E0" p-id="2676"></path><path d="M653.312 853.674667c20.138667 15.36 44.714667 23.893333 69.973333 23.893333 63.829333 0 115.712-51.882667 115.712-115.712 0-13.653333-2.389333-27.306667-7.168-39.936l-146.432-34.474667-32.085333 166.229334z" fill="#93C83E" p-id="2677"></path><path d="M683.008 648.874667l161.109333 37.546666c66.218667-22.186667 110.933333-83.968 111.274667-153.941333 0-66.901333-41.642667-126.976-104.106667-150.869333L640.341333 566.613333l42.666667 82.261334z" fill="#0779A1" p-id="2678"></path></svg>