<?xml version="1.0" standalone="no"?><!DOCTYPE svg PUBLIC "-//W3C//DTD SVG 1.1//EN" "http://www.w3.org/Graphics/SVG/1.1/DTD/svg11.dtd"><svg t="1602754508630" class="icon" viewBox="0 0 1105 1024" version="1.1" xmlns="http://www.w3.org/2000/svg" p-id="13047" width="51.796875" height="48" xmlns:xlink="http://www.w3.org/1999/xlink"><defs><style type="text/css"></style></defs><path d="M474.691818 495.599061l-54.680693 8.122857-73.898184 8.320975-47.746548 1.386829-46.557837-1.386829-35.661321-10.896515-31.500835-34.274493-24.566688-69.737696-5.547317-15.057003-32.689545-10.896515-19.21749-31.500834-13.670174-45.171008 15.057003-39.623691 35.463203-12.481463 28.925295 13.670174 13.670173 30.114005 16.245714-2.57554 5.547316-6.934146-5.547316-31.500834-1.188711-39.623691 8.122856-54.680694-0.396236-31.302716 24.962925-39.821809 43.784178-31.500835L350.273429 15.359926l84.794698 12.283344 73.898184 53.293864 34.274493 54.878812 21.79303 39.623691 5.547317 98.464873-16.443832 84.794698-30.114005 75.285013-28.727176 39.623691" fill="#F0D6B7" p-id="13048"></path><path d="M428.3321 732.350615l-195.741034 8.122856v32.887664l16.443832 114.908704-8.122857 9.509686-136.899852-46.557837-9.509686-16.245714-13.670173-154.730513-31.500835-92.917555-6.934146-21.991149 109.559506-75.285013 34.076374-13.670173 30.114006 37.048151 25.953517 23.179859 30.114005 9.509686 13.670174 4.160487 16.443831 71.124526 12.283345 15.057002 31.500834-10.896515-21.79303 42.39735 119.069192 56.067523-15.057003 8.320975" fill="#335061" p-id="13049"></path><path d="M104.012189 254.885138l35.463203-12.481463 28.925295 13.670174 13.670173 30.114005 16.245714-2.57554 4.160487-16.443832-8.122857-31.500834 8.122857-75.285013-6.736027-41.01052 24.566688-28.727176 53.293864-42.39735-15.057002-20.604319-75.285013 37.048151L151.956855 89.258109l-17.830661 38.236862L106.785847 164.543122l-8.320975 43.784179 5.547317 46.557837" fill="#6D6B6D" p-id="13050"></path><path d="M160.079712 126.108142s20.604319-50.718325 102.625359-75.285013c82.02104-24.566688 4.160488-17.830661 4.160488-17.830661L177.910373 67.266961 143.63588 101.541454 128.578877 128.8818l31.500835-2.773658M119.069192 245.177334s-28.727176-95.691214 80.634211-109.361388l-3.962369-16.443831-75.285013 17.830661-21.991149 71.124525 5.547317 46.557837 15.057003-9.707804" fill="#DCD9D8" p-id="13051"></path><path d="M162.85337 372.369382l17.830661-17.434424s8.122857 0.990592 9.509686 10.500278c1.386829 9.509686 5.547317 95.691214 64.388498 142.249051 5.349198 4.160488-43.784179-6.934146-43.784179-6.934146l-43.784178-68.350867M414.661927 346.415864s3.169895-41.406757 14.264528-38.236862 11.094633 14.264529 11.094634 14.264529-26.94411 17.632543-25.359162 23.972333M528.183801 194.657128s-22.585504 4.754843-24.566688 24.566688c-1.981185 19.811846 24.566688 4.160488 28.727176 2.773658M362.556773 196.043957s-30.114005 4.160488-30.114005 23.179859c0 19.21749 34.274493 17.830661 43.784178 9.509686M176.523543 284.801025s-51.907035-31.500834-57.454351-1.38683c-5.547317 30.114005-17.830661 51.907035 8.122856 83.40787l-17.830661-5.547317-16.245713-42.199231-5.547317-41.01052 31.500835-32.887663 35.661321 2.773658 20.60432 16.443832 1.18871 20.406201M201.090232 198.619497s23.179859-120.456021 140.862222-143.63588c96.879925-19.21749 147.796368 4.160488 167.013857 25.953517 0 0-86.181528-102.62536-168.202568-71.124525-82.02104 31.500834-142.249051 88.955186-140.862222 125.805219 2.179303 63.001669 1.188711 63.001669 1.188711 63.001669M518.475997 94.805426s-39.623691-1.386829-41.01052 34.274493c0 0 0 5.547317 2.773658 10.896515 0 0 31.500834-35.661322 50.718325-16.443832" fill="#F7E4CD" p-id="13052"></path><path d="M344.726112 143.542566s-6.736027-54.680694-53.293865-22.783622c-30.114005 20.604319-27.340347 49.331495-21.79303 54.680693 5.547317 5.547317 3.962369 16.443832 8.122857 8.915331 4.160488-7.528501 2.773658-32.09519 17.830661-39.029336 15.057003-6.736027 39.623691-14.462647 49.133377-1.783066" fill="#F7E4CD" p-id="13053"></path><path d="M216.147235 513.429722l-128.578878 57.454352s53.293864 211.986747 25.953518 277.762074l-19.21749-6.934146-1.188711-80.634211-35.661322-153.145566-15.057003-42.397349 134.126194-90.342016 39.623692 38.236862M229.421171 630.715847l18.226898 22.189267v82.021041h-21.79303s-2.773658-57.454352-2.773659-64.388498c0-6.934146 2.773658-31.500834 2.773659-31.500835" fill="#49728B" p-id="13054"></path><path d="M454.285618 733.737444l76.671842-4.160488s31.500834-79.4455 31.500834-83.407869 27.340347-114.908704 27.340347-114.908704l-61.61484-64.388498-12.283344-10.896515-32.887663 32.887663v127.192049l-28.727176 117.682362" fill="#335061" p-id="13055"></path><path d="M489.748821 484.702546l95.889332 71.124525 2.773659-32.887663-72.511355-66.964038-26.151636 28.727176" fill="#49728B" p-id="13056"></path><path d="M451.115722 722.64281l-30.114005-76.671842-31.500834-45.171007s6.934146-19.21749 16.443832-19.217491h31.500834l30.114005 10.896515-2.773658 50.718325-13.670174 79.4455" fill="#FFFFFF" p-id="13057"></path><path d="M457.059276 696.689293s-38.236862-73.898184-38.236862-84.794699c0 0 6.934146-16.443832 16.443832-12.283344s30.114005 15.057003 30.114005 15.057002v-25.953517l-46.557837-9.509686-31.500834 4.160487 53.293864 125.805219 10.896515 1.38683" fill="#DCD9D8" p-id="13058"></path><path d="M289.649181 516.20338l-37.840625-4.160487-35.661321-10.896515v12.283344l17.434424 19.019372 54.680693 24.764806" fill="#FFFFFF" p-id="13059"></path><path d="M228.430579 520.165749s42.397349 17.830661 56.067523 13.670174l1.386829 16.443831-38.236862-8.122856-23.179859-16.443832 3.962369-5.547317" fill="#DCD9D8" p-id="13060"></path><path d="M505.598297 586.535432c-23.179859-0.594355-44.180415-3.368014-62.605431-8.717212 1.188711-7.528501-0.990592-14.858884 0.792473-20.406201 5.15108-3.764251 13.670173-3.566132 21.396794-4.556725-6.736027-3.368014-16.047595-4.556724-23.774215-2.773658-0.198118-5.15108-2.57554-8.519094-3.962369-12.481463 13.075818-4.754843 43.784179-35.265085 61.218602-25.161043 8.320975 4.754843 11.688989 32.293308 12.481463 45.567244 0.594355 11.49087-0.990592 22.585504-5.547317 28.529058M394.651963 548.496688l-0.198119 5.349199c-7.330383 4.754843-19.019372 4.754843-26.94411 8.717212 11.688989 0.594355 21.000556 3.368014 28.925295 7.330383l-0.594356 13.273936c-13.273936 9.113449-25.359162 22.585504-41.01052 31.104597-7.330383 3.962369-33.2839 14.462647-41.208639 12.481463-4.358606-0.990592-4.754843-6.537909-6.537909-11.688989-3.764251-11.094633-12.481463-28.925294-13.273936-45.765363-0.990592-21.198675-3.169895-56.661878 19.811845-52.303272 18.425016 3.566132 39.821809 12.085226 54.086339 19.811846 8.717212 4.754843 13.670173 10.698397 26.94411 11.688988M407.925899 573.855851c-1.981185-11.49087-4.358606-14.858884-3.368014-24.962926 30.708361-20.604319 36.453796 35.265085 3.368014 24.962926" fill="#D33833" p-id="13061"></path><path d="M415.652519 584.950484c-3.368014 0-6.934146-0.594355-10.698397-1.783066l-5.745435-1.783066-0.990592-5.943554c-0.594355-3.368014-1.188711-6.141672-1.783066-8.519093-1.386829-5.745435-2.57554-10.698397-1.783066-19.019372l0.396236-4.754843 3.96237-2.57554c18.226898-12.085226 30.114005-3.368014 33.2839-0.198118 8.519094 8.122857 10.500278 22.585504 4.358606 33.085782-4.556724 7.528501-11.887107 11.49087-21.000556 11.49087zM414.26569 554.836479c0.198118 2.377421 0.594355 4.556724 1.386829 7.72662l0.594355 2.773658 3.169895-1.783066c1.584948-2.57554 0.792474-7.132264-0.792473-8.519094-0.792474-1.188711-2.57554-0.990592-4.358606-0.198118z" fill="#D33833" p-id="13062"></path><path d="M452.502551 583.167418s-9.509686-13.670173-2.773658-17.830661c6.934146-4.160488 13.670173 0 17.830661-6.934146 4.160488-6.934146 0-10.896515 1.386829-19.21749s8.122857-9.509686 15.057003-10.896515c6.934146-1.386829 25.953518-4.160488 28.727176 2.773658l-8.122857-24.566688-16.443832-5.547317-51.907035 30.114005-2.773658 15.057003v30.114005M308.866672 628.338426c-1.584948-21.396793-3.368014-42.595468-5.349199-63.992261-2.971777-31.897071 7.72662-26.349755 35.265085-26.349755 4.160488 0 25.953518 4.952961 27.538465 8.122857 7.528501 15.255121-12.481463 11.887107 8.519094 23.377978 17.830661 9.707804 49.133377-5.943554 42.001113-27.538466-3.962369-4.754843-21.000556-1.584948-26.94411-4.556724l-32.09519-16.64195c-13.670173-7.132264-44.972889-17.434424-59.435537-7.528502-36.651914 24.962925 2.377421 87.370239 15.45324 113.521875" fill="#EF3D3A" p-id="13063"></path><path d="M344.726112 143.542566c-37.24627-8.717212-55.869404 15.651358-67.162156 40.812402-10.104041-2.377421-6.141672-16.245713-3.566133-23.179859 6.736027-18.425016 33.482019-42.793586 55.473168-39.425573 9.707804 1.386829 22.585504 10.104041 15.255121 21.79303M526.598854 185.939916h1.783066c8.519094 17.434424 15.651358 36.057559 26.349754 51.510798-7.132264 16.64195-53.88822 31.302716-53.293864 1.386829 10.104041-4.358606 27.538465-0.990592 36.651914-6.537909-5.349198-14.06641-12.679581-26.151636-11.49087-46.359718M363.943602 186.534271c7.924738 14.660766 10.500278 30.114005 21.991149 41.208639 5.15108 4.952961 15.057003 11.094633 10.104041 24.962925-1.188711 3.368014-9.509686 10.500278-14.462647 12.085226-17.830661 5.15108-59.237418 0.990592-45.171008-21.000557 14.660766 0.594355 34.472611 9.509686 45.369126-1.18871-8.320975-13.670173-23.377978-40.416165-17.830661-56.067523M519.862826 335.519349c-26.745991 17.236306-56.661878 35.85944-100.446057 31.500835-9.311567-8.122857-12.8777-26.349755-3.76425-38.236862 4.754843 8.122857 1.783066 23.179859 15.057002 25.359162 24.962925 4.160488 53.88822-15.255121 71.718881-21.991149 11.094633-18.623135-0.990592-25.557281-10.896515-37.642506-20.406201-24.566688-47.944666-55.275049-46.954074-92.125082 8.320975-5.943554 8.91533 9.113449 10.104041 11.887108 10.698397 24.962925 37.642506 57.058115 57.256234 78.454908 4.754843 5.349198 12.679581 10.30216 13.670173 13.868292 2.377421 9.905923-6.736027 22.189267-5.745435 28.925294M167.211976 317.292451c-8.320975-4.754843-10.30216-25.953518-20.208082-26.547873-14.06641-0.792474-11.49087 27.340347-11.490871 43.784179-9.707804-8.717212-11.292752-35.85944-4.358606-49.727732-8.122857-3.962369-11.688989 4.358606-16.245713 7.330382 5.943554-41.802994 61.416721-19.21749 52.303272 25.161044M536.901013 352.953773c-12.481463 23.774215-30.114005 49.727732-66.567801 50.520206-0.792474-7.72662-1.386829-19.21749 0-23.972333 27.934702-2.57554 45.171008-16.840069 66.567801-26.547873M361.764299 368.407013c23.377978 12.283344 66.171564 13.670173 97.870517 12.679581 1.783066 6.934146 1.584948 15.453239 1.783066 23.972333-40.812402 1.981185-88.955186-8.122857-99.653583-36.651914M357.405693 391.190635c16.047595 40.416165 71.520762 35.85944 118.276718 34.67073-1.981185 5.349198-6.537909 11.49087-12.085226 13.670173-15.057003 6.141672-56.265641 10.698397-77.068079-0.396237-13.273936-6.934146-21.594912-22.783622-28.925295-32.09519-3.368014-4.358606-20.802438-15.849476-0.198118-15.849476" fill="#231F20" p-id="13064"></path><path d="M517.881642 614.470134c-18.821253 32.491427-37.048151 65.577209-59.435537 94.304385 9.311567-27.736584 13.472055-73.898184 14.858884-109.163269 19.613727-9.509686 36.453796 1.783066 44.576653 14.858884" fill="#81B0C4" p-id="13065"></path><path d="M450.12513 511.646656c-9.707804 6.339791-18.028779 14.264529-27.340347 21.000556-20.802438 0.990592-32.09519-1.386829-47.350311-13.273937l1.783067-1.783066c22.189267 10.104041 50.520206-3.962369 72.907591-5.943553" fill="#F0D6B7" p-id="13066"></path><path d="M333.631478 663.009155c6.141672-26.349755 29.915887-40.218046 51.708917-54.680693 22.387385 28.529058 36.057559 64.982853 51.114562 100.247938-35.661322-10.698397-71.916999-27.934702-102.823479-45.567245" fill="#81B0C4" p-id="13067"></path><path d="M458.247987 874.203429c-0.990592 21.594912 2.179303 56.265641 3.169895 79.049263 14.462647 0 20.604319-3.169895 31.302716-6.736027 1.188711-26.745991-8.519094-51.31268-11.292752-75.68125-5.745435-1.584948-16.047595 3.962369-23.179859 3.368014z m-223.675736-122.833443c9.509686 87.17212 23.179859 160.27783 48.340903 237.544028 55.869404 17.038187 123.229679 18.425016 172.561174 3.169895-9.113449-43.58606-5.15108-96.483688-10.500278-143.041524-3.962369-34.868848-1.981185-70.133933-7.528501-105.597137-59.633655-12.679581-144.230235-3.169895-202.873298 7.924738z m217.137827-7.528501c-0.594355 37.444388 1.584948 74.294421 4.556724 111.738809 14.462647-2.179303 24.170452-3.566132 37.444388-6.537909-4.358606-36.057559-3.764251-76.671842-12.679581-108.568914-10.104041 0.198118-19.019372 0-29.321531 3.368014z m72.907591-6.141672c-6.736027-1.584948-14.660766 0-21.198675 0 2.971777 30.510242 10.500278 64.190379 13.075818 96.087451 10.30216 0.396237 15.651358-4.556724 24.170452-6.141672 0.396237-27.934702-2.57554-66.567801-16.047595-89.945779z m110.35198 100.842294c21.396793-5.15108 34.868848-31.302716 28.727176-58.246826-3.962369-18.028779-11.094633-52.105154-18.821254-63.596024-5.745435-8.519094-21.000556-19.811846-33.2839-11.887108-19.811846 12.679581-54.878812 16.443832-69.341459 31.897072 7.330383 24.170452 9.509686 57.454352 12.481462 88.162712 24.764807 1.584948 55.473167-6.934146 76.077487 1.981185-14.462647 4.754843-33.085782 4.754843-45.567245 11.49087 10.30216 4.952961 34.274493 3.962369 49.727733 0.198119z m-198.712811-129.965707c-15.057003-35.265085-28.727176-71.916999-51.114561-100.247938-21.79303 14.462647-45.567245 28.330939-51.708917 54.680693 31.104597 17.632543 67.360275 34.868848 102.823478 45.567245z m37.048151-109.163269c-1.386829 35.265085-5.349198 81.624804-14.858884 109.163269 22.387385-28.529058 40.614283-61.812958 59.435537-94.304385-8.122857-12.8777-24.962925-24.170452-44.576653-14.858884z m-42.001112-14.858884c-8.519094-0.990592-15.651358 9.707804-26.745992 5.15108-2.57554 2.773658-4.754843 5.745435-7.330383 8.519094 24.36857 29.51965 35.463203 71.124525 54.284457 105.795255 10.104041-33.2839 8.91533-69.539578 11.094634-105.795255-13.868292 0.792474-21.396793-12.679581-31.302716-13.670174z m-26.94411-35.661322c-0.990592 10.104041 1.386829 13.273936 3.368014 24.962926 33.2839 10.30216 27.538465-45.567245-3.368014-24.962926z m-36.651914-12.085225c-14.264529-7.72662-35.661322-16.245713-54.086339-19.811846-22.783622-4.358606-20.802438 31.104597-19.811845 52.303272 0.792474 16.840069 9.509686 34.472611 13.273936 45.765363 1.783066 5.15108 2.179303 10.698397 6.537909 11.688989 7.924738 1.783066 33.878256-8.519094 41.208639-12.481463 15.651358-8.519094 27.736584-21.991149 41.01052-31.104597l0.594356-13.273936c-7.924738-3.962369-17.236306-6.736027-28.925295-7.330383 7.924738-3.962369 19.613727-3.962369 26.94411-8.717212l0.198119-5.349199c-13.273936-0.990592-18.226898-6.934146-26.94411-11.688988z m-136.305497-24.764807c-11.887107 12.085226 33.2839 28.330939 47.548429 29.321531 0-7.528501 4.358606-14.858884 3.368014-20.208082-17.038187-2.971777-39.425573-0.990592-50.916443-9.113449z m145.815183 5.745435l-1.783067 1.783066c15.255121 11.887107 26.547873 14.462647 47.350311 13.273936 9.311567-6.736027 17.632543-14.660766 27.340347-21.000556-22.387385 1.783066-50.718325 15.849476-72.907591 5.943554z m133.928075 40.614283c-0.594355-13.273936-4.160488-40.812402-12.481463-45.567245-17.236306-10.104041-48.142785 20.406201-61.218602 25.161044 1.386829 4.160488 3.764251 7.330383 3.962369 12.481463 7.72662-1.981185 17.038187-0.594355 23.774215 2.773658-7.72662 0.792474-16.245713 0.792474-21.396794 4.556725-1.783066 5.349198 0.396237 12.8777-0.792473 20.406201 18.425016 5.15108 39.425573 7.924738 62.605431 8.717212 4.556724-6.339791 6.141672-17.434424 5.547317-28.529058z m-299.753222-34.67073c-3.764251-2.57554-28.925294-35.463203-32.293309-34.076374-45.567245 18.028779-88.162713 48.935258-126.201455 78.454908 36.255677 77.860553 50.916443 173.15553 53.491982 265.082493 41.604876 19.415609 78.058671 47.548429 134.522431 50.322088-6.537909-46.1616-12.481463-87.370239-16.245713-130.75818-14.264529-5.943554-34.472611 0.198118-47.746548-1.783067-0.198118-16.047595 20.208082-6.934146 21.991149-17.83066 1.188711-8.122857-11.292752-8.717212-7.132264-21.594912 10.30216 3.764251 15.849476 12.085226 26.944109 15.255121 10.104041-22.189267-0.198118-61.218603 1.38683-79.643619 0.198118-3.566132 1.783066-19.21749 9.509685-16.443832 6.934146 2.377421-0.396237 41.802994 0.396237 59.435537 0.594355 16.047595-1.981185 31.698953 4.556725 41.802994 54.482575-7.330383 109.955743-12.283344 168.796924-13.868292-12.8777-5.547317-28.330939-10.896515-45.369127-20.406201-9.113449-5.15108-38.038743-15.849476-40.614283-24.566688-4.160488-13.868292 11.094633-21.198675 13.670173-33.085782-27.538465 15.057003-32.887664-14.462647-39.425572-35.265085-5.943554-18.821253-9.311567-32.887664-10.698397-43.784179-23.774215-11.292752-49.133377-22.783622-69.539577-37.24627z m275.780889-30.114005c37.840625-18.425016 44.774771 68.747104 29.915887 96.879925 2.377421 8.320975 10.30216 11.49087 13.472055 19.019372-21.198675 37.840625-44.774771 73.303828-66.369683 110.748216 16.047595-9.905923 39.029336-1.783066 57.850589-9.311567 6.934146-2.773658 11.887107-18.623135 17.236306-31.302716 14.462647-34.868848 29.51965-78.653027 36.255677-111.936927 1.584948-7.528501 5.745435-24.170452 4.754843-30.906479-1.584948-12.085226-18.028779-21.000556-26.349755-28.529058-15.255121-13.868292-24.962925-25.953518-41.01052-38.831217-6.537909 9.905923-20.406201 16.443832-25.755399 24.170451zM124.616508 157.21274c-18.028779 19.811846-14.264529 57.256234-12.085226 83.605988 32.689545-20.604319 76.077487 1.584948 75.68125 36.651914 15.651358-0.396237 5.745435-19.415609 2.971777-31.698953-9.311567-40.218046 15.453239-83.804107 1.188711-120.456021-28.132821 1.981185-51.114561 13.472055-67.756512 31.897072z m129.371351-115.50306c-41.01052 11.688989-93.313792 41.406757-110.153861 78.058672 13.075818-1.981185 21.991149-8.519094 34.868849-9.311568 4.952961-0.396237 11.292752 1.981185 16.840068 0.594356 11.094633-2.773658 20.406201-27.736584 28.925295-37.048152 8.122857-9.113449 18.028779-12.8777 24.764807-21.198674 4.358606-2.179303 10.698397-1.981185 10.896515-8.519094-1.981185-1.584948-3.962369-3.169895-6.141673-2.57554z m212.97734 10.896515c-42.397349-23.972333-114.314349-42.001112-159.485357-19.415608-36.453796 18.226898-85.785291 48.340903-102.625359 86.379646 15.651358 36.850033-4.556724 70.53017-5.943554 107.77644-0.594355 19.811846 9.311567 37.24627 10.104041 58.841181-5.349198 8.91533-21.79303 9.905923-33.085782 9.311567-3.764251-19.21749-10.500278-40.614283-30.312124-42.793586-27.934702-2.971777-48.340903 20.009964-49.529613 44.180415-1.584948 28.330939 21.79303 75.285013 54.680693 72.115118 12.679581-1.188711 15.849476-14.06641 29.717769-13.868292 7.528501 15.057003-11.688989 19.811846-13.670174 30.510242-0.594355 2.773658 1.584948 13.670173 2.773659 18.623135 5.943554 24.764807 19.415609 56.859997 32.491426 75.68125 16.64195 23.972333 49.529614 27.538465 84.794699 29.915887 6.339791-13.670173 29.51965-12.481463 44.576652-8.915331-18.028779-7.132264-35.066967-24.566688-48.935258-40.019928-16.047595-17.632543-32.293308-36.651914-33.085782-59.831773 30.312124 42.001112 55.275049 78.851145 110.550098 97.276161 41.802994 14.06641 90.342016-6.339791 122.437205-28.925294 13.273936-9.311567 21.198675-24.170452 30.708361-37.840625 35.463203-50.916443 51.907035-123.427798 48.340903-193.957968-1.584948-29.123413-1.386829-58.048707-11.094634-77.464316-10.104041-20.406201-44.576652-38.633099-64.784735-20.208082-3.764251-19.811846 16.840069-32.09519 40.812402-24.962925-17.038187-21.991149-35.066967-48.539021-59.435536-62.407314z m79.247382 654.979613c33.2839-16.443832 95.294977-44.378534 116.097414 0 7.72662 16.443832 16.64195 44.180415 20.60432 61.020484 5.547317 23.972333-6.141672 74.096302-30.708361 82.02104-21.594912 7.132264-46.954074 6.736027-73.10571 1.38683-3.169895-2.57554-6.537909-6.934146-8.91533-11.688989-18.623135-0.792474-36.057559 0.990592-50.916443 8.717212 1.386829 13.868292-7.924738 16.047595-16.64195 18.821253-6.537909 25.755399 12.8777 59.237418 8.320975 82.615396-3.368014 16.64195-23.774215 19.21749-39.029336 22.387385-0.396237 9.311567 0.594355 17.038187 1.783066 24.962926-3.368014 12.679581-19.019372 20.009964-33.680137 21.79303-48.340903 5.745435-121.644731 8.320975-168.00445-8.320975-12.8777-31.698953-23.179859-70.332052-33.878256-106.785848-45.369126 4.754843-81.822922-19.613727-116.493652-35.463203-11.887107-5.547317-28.529058-8.519094-32.887663-18.02878-4.358606-9.113449-2.57554-26.94411-3.566132-43.58606-2.773658-42.595468-5.15108-83.605988-16.245714-127.192048-4.952961-19.613727-13.868292-36.850033-20.009964-55.671286-5.745435-17.434424-15.651358-39.029336-18.226897-56.46376-3.764251-25.755399 20.406201-27.340347 36.057558-38.43498 23.972333-17.236306 42.991705-26.94411 68.945223-42.595468 7.72662-4.556724 30.906479-16.245713 33.680137-21.79303 5.349198-10.698397-9.113449-25.755399-12.877699-34.076374-5.943554-13.273936-9.113449-24.566688-10.104042-37.642507-21.79303-3.368014-38.43498-16.443832-48.340903-31.104597-16.64195-24.170452-27.934702-69.143341-13.670173-103.219715 1.188711-2.773658 6.736027-7.924738 7.528501-12.085226 1.584948-8.122857-2.971777-19.019372-3.368014-27.538465-1.584948-44.378534 7.528501-82.615396 37.444388-96.087451 12.085226-48.340903 55.473167-64.388498 96.483688-88.360831 15.255121-8.91533 32.09519-14.660766 49.529614-21.198674 62.407313-22.981741 158.296646-18.623135 210.005562 20.604319 21.991149 16.64195 57.058115 51.708917 69.737696 77.068079 33.085782 66.964038 30.906479 179.099083 7.528502 260.723887-3.169895 10.896515-7.72662 27.142228-13.868292 40.218046-4.358606 9.113449-18.028779 27.538465-16.443832 35.661322 1.783066 8.320975 31.302716 30.708361 37.444388 36.850033 11.292752 10.896515 33.085782 25.557281 34.868848 39.425572 1.981185 14.660766-6.537909 34.868848-10.698396 49.133377-14.462647 47.746548-28.330939 91.530726-44.378534 133.928076" fill="#231F20" p-id="13068"></path><path d="M324.716148 378.709172c1.783066-2.377421 11.688989-5.943554 25.557281 0.594356 0 0-16.443832 2.773658-15.057003 30.114005l-6.934146-1.386829c0.198118 0-6.934146-24.764807-3.566132-29.321532" fill="#F7E4CD" p-id="13069"></path><path d="M444.775932 613.875779a7.528501 7.528501 0 1 1-15.057003 0 7.528501 7.528501 0 0 1 15.057003 0" fill="#1D1919" p-id="13070"></path><path d="M64.784735 620.611806h239.72333c1.981185 0 3.368014 1.584948 3.368014 3.368014v7.528501c0 1.981185-1.584948 3.368014-3.368014 3.368014H64.784735c-1.981185 0-3.368014-1.584948-3.368014-3.368014v-7.528501c-0.198118-1.783066 1.386829-3.368014 3.368014-3.368014zM349.282836 620.611806h212.184866c1.981185 0 3.368014 1.584948 3.368013 3.368014v7.528501c0 1.981185-1.584948 3.368014-3.368013 3.368014H349.282836c-1.981185 0-3.368014-1.584948-3.368013-3.368014v-7.528501c0-1.783066 1.386829-3.368014 3.368013-3.368014z" fill="#231F20" p-id="13071"></path><path d="M64.784735 613.67766h232.987303c1.981185 0 3.368014 1.584948 3.368014 3.368014v7.528501c0 1.981185-1.584948 3.368014-3.368014 3.368014H64.784735c-1.981185 0-3.368014-1.584948-3.368014-3.368014v-7.528501c-0.198118-1.981185 1.386829-3.368014 3.368014-3.368014zM370.283393 613.67766h191.184309c1.981185 0 3.368014 1.584948 3.368013 3.368014v7.528501c0 1.981185-1.584948 3.368014-3.368013 3.368014h-191.184309c-1.981185 0-3.368014-1.584948-3.368014-3.368014v-7.528501c0-1.981185 1.386829-3.368014 3.368014-3.368014z" fill="#231F20" p-id="13072"></path></svg>