<?xml version="1.0" standalone="no"?><!DOCTYPE svg PUBLIC "-//W3C//DTD SVG 1.1//EN" "http://www.w3.org/Graphics/SVG/1.1/DTD/svg11.dtd"><svg t="1602754586529" class="icon" viewBox="0 0 1181 1024" version="1.1" xmlns="http://www.w3.org/2000/svg" p-id="13962" width="55.359375" height="48" xmlns:xlink="http://www.w3.org/1999/xlink"><defs><style type="text/css"></style></defs><path d="M974.926769 191.606154a37.612308 37.612308 0 0 1-37.651692 37.612308H244.302769a37.651692 37.651692 0 0 1 0-75.264h692.972308c20.795077 0 37.651692 16.856615 37.651692 37.651692zM974.926769 319.724308a37.651692 37.651692 0 0 1-37.651692 37.691077H244.302769a37.651692 37.651692 0 1 1 0-75.303385h692.972308c20.795077 0 37.651692 16.856615 37.651692 37.612308zM974.926769 447.881846a37.691077 37.691077 0 0 1-37.651692 37.691077H244.302769a37.651692 37.651692 0 1 1 0-75.303385h692.972308c20.795077 0 37.651692 16.856615 37.651692 37.612308zM974.926769 576.078769a37.651692 37.651692 0 0 1-37.651692 37.651693H244.302769a37.691077 37.691077 0 0 1 0-75.303385h692.972308c20.795077 0 37.651692 16.896 37.651692 37.651692zM974.926769 704.236308a37.612308 37.612308 0 0 1-37.651692 37.651692H244.302769a37.651692 37.651692 0 0 1 0-75.264h692.972308c20.795077 0 37.651692 16.856615 37.651692 37.612308zM974.926769 832.393846a37.651692 37.651692 0 0 1-37.651692 37.651692H244.302769a37.612308 37.612308 0 1 1 0-75.264h692.972308c20.795077 0 37.651692 16.777846 37.651692 37.612308z" fill="#13227a" p-id="13963"></path></svg>