<svg width="16" height="16" viewBox="0 0 16 16" fill="none" xmlns="http://www.w3.org/2000/svg">
    <path d="M12.4453 3.55466C15.3047 6.41406 16.0937 10.3125 13.2031 13.2031C10.3125 16.0938 6.26492 15.2024 3.53125 12.4688C0.797582 9.73508 -0.0156384 5.64064 2.81249 2.81251C5.64062 -0.015625 9.58588 0.695257 12.4453 3.55466Z" fill="#F2FCF3"/>
    <path fill-rule="evenodd" clip-rule="evenodd" d="M12.4453 3.55466C15.3047 6.41407 16.0938 10.3125 13.2032 13.2031C10.3126 16.0938 6.26498 15.2024 3.53131 12.4688C0.797642 9.73508 -0.0155783 5.64064 2.81255 2.81251C5.64069 -0.0156236 9.58594 0.695258 12.4453 3.55466ZM11.7382 4.26177C13.0481 5.5716 13.825 7.0622 13.987 8.48064C14.1297 9.73068 13.8052 10.9891 12.8357 12.1285L3.88778 3.18059C5.00024 2.24018 6.25426 1.91061 7.51081 2.04508C8.93584 2.19758 10.4348 2.95835 11.7382 4.26177ZM3.18158 3.8886L12.1277 12.8347C10.9928 13.7911 9.70736 14.1038 8.42606 13.952C6.97423 13.78 5.47758 13.0008 4.23842 11.7616C3.00567 10.5289 2.24263 9.02408 2.08011 7.56533C1.93664 6.27756 2.25426 4.99679 3.18158 3.8886Z" fill="#F28C35"/>
</svg>
