<svg width="16" height="16" viewBox="0 0 16 16" fill="none" xmlns="http://www.w3.org/2000/svg">
    <path fill="#FFE79E"
          d="M4.76176 3.47838C5.44615 3.47838 6.00095 2.92358 6.00095 2.23919C6.00095 1.5548 5.44615 1 4.76176 1C4.07738 1 3.52257 1.5548 3.52257 2.23919C3.52257 2.92358 4.07738 3.47838 4.76176 3.47838Z"/>
    <path fill="#FDCCC8"
          d="M6.00134 10.0417C6.00597 10.6061 6.15503 11.136 6.41329 11.5963C6.96787 12.5844 8.02546 13.2522 9.23918 13.2522C11.0274 13.2522 12.495 11.7651 12.4769 9.97697C12.501 12.3577 10.4726 14.4915 7.99987 14.4915C7.28157 14.4915 6.60262 14.3224 6.00109 14.0217C4.53156 13.2873 3.52259 11.7686 3.52259 10.0142V5.37898C3.52259 4.69746 4.08013 4.13979 4.76178 4.13979C5.10248 4.13979 5.41231 4.27921 5.63686 4.50389C5.86155 4.72845 6.00096 5.03828 6.00096 5.37897V10.0184C6.00121 10.0262 6.00134 10.034 6.00134 10.0417Z"/>
    <path fill="#F7EEE5"
          d="M12.4773 10.0143C12.4773 11.8026 11.0274 13.2522 9.23931 13.2522C8.02546 13.2522 6.96787 12.5845 6.41342 11.5963C6.15516 11.136 6.0061 10.606 6.00147 10.0418C6.01665 11.1221 6.88903 11.9952 7.96938 12.011C7.97928 12.0111 7.98919 12.0111 7.99909 12.0111C8.00848 12.0111 8.01812 12.0111 8.02751 12.011C9.80263 11.9963 11.237 10.5526 11.237 8.77404C11.237 8.19824 11.0867 7.65781 10.8232 7.1894C10.2858 6.23406 9.27763 5.57891 8.11316 5.53891C10.4958 5.59794 12.4163 7.51814 12.4753 9.90108C12.4758 9.91407 12.4761 9.92693 12.4762 9.93992C12.4765 9.9524 12.4769 9.96474 12.4769 9.97696C12.4773 9.98944 12.4773 10.0018 12.4773 10.0143Z"/>
    <path fill="#E5E8ED"
          d="M10.8232 7.1894C11.0867 7.65781 11.237 8.19824 11.237 8.77404C11.237 10.5526 9.80263 11.9962 8.02751 12.011C9.11776 11.9958 9.99684 11.1072 9.99684 10.0134C9.99684 8.91037 9.10285 8.016 7.99999 8.01548C7.63562 8.01523 7.3056 7.85536 7.07847 7.60263C6.88118 7.38309 6.7608 7.09307 6.7608 6.77629C6.7608 6.43559 6.90022 6.12564 7.12478 5.90095C7.34946 5.6764 7.65916 5.53698 8.00011 5.53698C8.01644 5.53698 8.03278 5.53711 8.04898 5.53749C8.05747 5.53762 8.06596 5.53775 8.07445 5.538C8.08744 5.53813 8.1003 5.53851 8.11329 5.5389C9.27763 5.57891 10.2858 6.23406 10.8232 7.1894Z"/>
</svg>
