<?xml version="1.0" standalone="no"?><!DOCTYPE svg PUBLIC "-//W3C//DTD SVG 1.1//EN" "http://www.w3.org/Graphics/SVG/1.1/DTD/svg11.dtd"><svg t="1602752914287" class="icon" viewBox="0 0 1024 1024" version="1.1" xmlns="http://www.w3.org/2000/svg" p-id="5387" xmlns:xlink="http://www.w3.org/1999/xlink" width="48" height="48"><defs><style type="text/css"></style></defs><path d="M853.344 0H170.688A171.104 171.104 0 0 0 0.032 170.656v682.656c0 93.856 76.8 170.656 170.656 170.656h682.656c93.856 0 170.656-76.8 170.656-170.656V170.656C1024 76.8 947.2 0 853.344 0z m-93.312 719.136a132.896 132.896 0 0 1-39.392 52.64c-17.92 14.496-40.608 26.464-68.576 34.976-27.904 8.672-61.088 13.024-99.552 13.024H278.08V222.432h290.208c53.664 0 96.672 12.064 128.864 36.704 32.416 24.736 48.544 61.6 48.544 111.36 0 30.08-7.328 55.904-22.112 77.216-14.688 21.216-35.84 37.792-63.136 49.312v1.952c36.448 7.68 64.64 24.96 83.2 51.84s28.064 60.832 28.064 101.856c0 22.944-4.448 44.8-12.8 65.184l1.056 1.152z m-118.464-147.2c-17.504-16-42.08-23.808-73.824-23.808h-184.416v186.368h184.928c31.584 0 56.32-8.192 73.824-24.736 17.504-16.416 26.464-39.84 26.464-69.984-0.288-29.44-8.96-52.224-26.464-67.84h-0.736z m-25.6-120.448c16.896-14.336 25.184-34.848 25.184-61.6 0-30.048-7.456-51.36-22.624-63.584-15.008-12.16-36.704-18.464-65.184-18.464h-170.656v164.832h170.656c24.864 0 46.08-7.264 62.464-21.152z" fill="#563D7C" p-id="5388"></path></svg>