<?xml version="1.0" standalone="no"?><!DOCTYPE svg PUBLIC "-//W3C//DTD SVG 1.1//EN" "http://www.w3.org/Graphics/SVG/1.1/DTD/svg11.dtd"><svg t="1602752954196" class="icon" viewBox="0 0 1024 1024" version="1.1" xmlns="http://www.w3.org/2000/svg" p-id="5700" xmlns:xlink="http://www.w3.org/1999/xlink" width="48" height="48"><defs><style type="text/css"></style></defs><path d="M1012.28430222 477.19765334c-2.64988445-111.27694222-56.96170667-153.66712889-103.32728889-168.23864889s-143.06872889 5.29863111-196.05731555 15.89703111-230.49898667 3.97425778-308.65635556-34.44280889-213.27758222-5.29863111-213.27758222-5.29863111-219.90286222 66.23459555-166.91427555 288.78734222c84.78151111 253.01902222 449.07747555 223.87598222 668.97806222 192.08192s321.90464-177.51153778 319.25475555-288.78734222zM945.38638222 544.75889778c-31.13073778 72.85873778-133.79584 147.70631111-320.57912889 169.56188444s-274.87687111 0-296.07253333-7.94851555-218.57735111-51.00088889-223.87598222-199.36938667c3.97425778-72.85873778 30.46855111-98.68970667 30.46855111-98.68970666s40.40362667-80.80725333 113.26350222-65.57354667 208.64227555 66.89792 262.29304889 77.49518222 194.73180445 4.63758222 245.73383111-15.89703111 121.87306667-27.15761778 160.95232 1.98656 58.94940445 65.57354667 27.81866667 138.43114667z" fill="#13227a" p-id="5701"></path><path d="M243.54588445 480.14677334h48.59562666c23.06503111 0 39.35232 0.29354667 48.85959111 3.52711111 9.50727111 3.23584 14.26090667 12.65550222 14.26090667 22.95808v58.04600889c0 8.00426667-4.13809778 14.38833778-12.41315556 19.15790222-8.27847111 4.76842667-22.09905778 7.15207111-41.46517333 7.15207111h-57.84007111v-110.84117333zM320.49265778 560.91079112c4.52835555-1.17873778 6.79480889-4.17564445 6.79480889-8.99754667v-33.51665778c0-4.00042667-1.97745778-6.58887111-5.93009778-7.76874667s-24.13681778-1.82044445-28.74481778-1.92284444c-0.98759111 0-1.93763555 0-2.84103111 0-0.90794667 0-16.42609778 0-17.41482667 0v53.97617778c7.24536889 0 43.60533333-0.58823111 48.13710222-1.76924445z" fill="#13227a" p-id="5702"></path><path d="M397.79669333 480.58936889v76.51328c0 2.66922667 1.23676445 3.44519111 3.70688 4.98460445s18.43655111 1.03424 21.40273778 1.13436444c0.16156445 0 0.28558222 0 0.37091556 0 0.07964445 0 0.2048 0 0.36977778 0 0.32881778 0 0.65763555 0 0.9875911 0 0.32881778 0 0.57685333-0.0512 0.74183112-0.1536 2.96504889-0.2048 18.93148445 0.19797333 21.40273778-1.44270222 2.47011555-1.6384 3.70688-2.62144 3.70688-5.59672889v-75.43694222h29.67324444v71.12817777c0 12.30734222-7.18279111 29.98954667-16.23836444 34.50311112-9.06012445 4.51242667-21.33333333 5.44312889-36.81393778 5.44312888-18.44906667 0-32.36636445-0.92956445-41.75530667-5.44312888-9.38780445-4.51128889-16.73216-21.11943111-16.73216-31.27068445v-74.36060444h29.17831111z" fill="#13227a" p-id="5703"></path><path d="M490.04999111 479.79975112h59.45685334c13.48835555 0 25.68192 1.91488 36.57272888 5.7344 10.89422222 3.82293333 16.34304 13.17432889 16.34304 22.75555555 0 6.13717333 0.90908445 13.98101333-2.28920888 17.42506667-3.20284445 3.44746667-3.91509333 2.87288889-7.7164089 4.37703111-1.55534222 0.54158222-3.11296 0.99783111-4.66830222 1.37329777-1.55534222 0.37774222-2.94343111 0.62122667-4.15061333 0.72704 9.1648 2.80007111 10.48007111 6.00405333 14.54535111 9.60967112 4.06072889 3.60789333 6.09507555 9.18072889 6.09507556 16.71509333 0 10.12167111-4.06528 19.22616889-12.19128889 24.66247111-8.13169778 5.43857778-21.70424889 8.15559111-40.72561778 8.15559111h-61.27274667v-111.53749333zM571.00401778 523.86588445c3.86730667-1.63953778 5.80608-5.22922667 5.80608-10.76906667 0-2.66581333-1.19694222-6.09393778-3.58172445-7.63107556-2.38933333-1.53941333-5.72416-2.30855111-10.00675555-2.3085511h-45.7216v21.84305777c9.71662222 0 49.63100445 0.50631111 53.50286222-1.13436444zM568.75918222 567.30510222c5.02328889-1.33233778 7.53550222-4.97208889 7.53550223-10.92152888 0-5.53756445-2.71815111-6.34993778-8.15217778-7.73347556-5.43744-1.38467555-41.74620445 0.31630222-50.64248889-0.19569778v18.20216889c9.71776 0 46.2336 1.98314667 51.26030222 0.64853333z" fill="#13227a" p-id="5704"></path><path d="M613.57852445 479.79975112h59.45685333c13.48835555 0 25.68192 1.91488 36.57272889 5.7344 10.89422222 3.82293333 16.34304 13.17432889 16.34304 22.75555555 0 6.13717333 0.82602667 13.98101333-2.37112889 17.42506667-3.20284445 3.44746667-3.82976 2.87288889-7.63221333 4.37703111-1.55534222 0.54158222-3.11296 0.99783111-4.66830223 1.37329777-1.55534222 0.37774222-2.94343111 0.62122667-4.15061333 0.72704 9.1648 2.80007111 10.48007111 6.00405333 14.54535111 9.60967112 4.06072889 3.60789333 6.09507555 9.18072889 6.09507555 16.71509333 0 10.12167111-4.06528 19.22616889-12.19128888 24.66247111-8.13169778 5.43744-21.70311111 8.15445333-40.72334222 8.15445334h-61.27274667v-111.53635556zM694.53141333 523.86588445c3.86730667-1.63953778 5.80608-5.22922667 5.80608-10.76906667 0-2.66581333-1.19694222-6.09393778-3.58172444-7.63107556-2.38933333-1.53941333-5.72416-2.30855111-10.00675556-2.3085511h-45.7216v21.84305777c9.71662222 0 49.63100445 0.50631111 53.50286222-1.13436444zM692.28771555 567.30510222c5.02328889-1.33233778 7.53550222-4.97208889 7.53550223-10.92152888 0-5.53756445-2.71815111-6.34993778-8.15217778-7.73347556-5.43744-1.38467555-41.74620445 0.31630222-50.64248889-0.19569778v18.20216889c9.71776 0 46.2336 1.98314667 51.26030222 0.64853333z" fill="#13227a" p-id="5705"></path><path d="M740.75022222 508.928c0-10.25365333 5.26904889-18.83591111 15.81283556-23.0912 10.53809778-4.25528889 23.30510222-6.38407111 38.29532444-6.38407111 1.97745778 0 3.99246222 0.05347555 6.05184 0.1536 2.05824 0.10353778 4.07665778 0.20593778 6.05184 0.30606223 10.53923555 0.92387555 20.13639111 3.43722667 28.78350223 7.53777777 8.64597333 4.10282667 12.97180445 12.14691555 12.97180444 21.47783111v45.68746667c0 10.15352889-4.32583111 19.52995555-12.97180444 25.47598222-8.64597333 5.94944-16.2304 11.57347555-35.99473778 11.57347556-20.09770667 0-40.47189333-2.03434667-47.88337778-8.75178667-7.41262222-6.71516445-11.11950222-19.68241778-11.11950222-28.29653333v-45.68746667zM769.93080889 558.67619556c0 2.87288889 1.43928889 6.37610667 4.32469333 7.86318222 2.87971555 1.48821333 19.30126222 0.90680889 22.76010667 0.90680889 0.16156445 0 0.28672 0 0.37091556 0 0.07964445 0 0.2048 0 0.36977777 0 3.29386667-0.10126222 16.93696 0.45397333 19.74044445-0.98304 2.79779555-1.43473778 4.19953778-4.91292445 4.19953778-7.78581333v-42.87488c0-2.86947555-1.40174222-6.3488-4.19953778-7.78581334-2.80234667-1.43473778-16.44657778-0.87836445-19.74044445-0.98304-0.16611555 0-0.29013333 0-0.36977777 0-0.08419555 0-0.21048889 0-0.37091556 0-3.45884445 0-19.88152889-0.60529778-22.76010667 0.83057778-2.88426667 1.43701333-4.32469333 4.9664-4.32469333 7.93941334v42.87374222z" fill="#13227a" p-id="5706"></path></svg>