<?xml version="1.0" standalone="no"?><!DOCTYPE svg PUBLIC "-//W3C//DTD SVG 1.1//EN" "http://www.w3.org/Graphics/SVG/1.1/DTD/svg11.dtd"><svg t="1602754375735" class="icon" viewBox="0 0 1024 1024" version="1.1" xmlns="http://www.w3.org/2000/svg" p-id="11337" width="48" height="48" xmlns:xlink="http://www.w3.org/1999/xlink"><defs><style type="text/css"></style></defs><path d="M222.064 163.368c-58.816 84.52-51.496 194.496-6.56 284.32l3.288 6.384 2.104 4.048 1.312 2.328 2.344 4.192c1.392 2.456 2.824 4.896 4.288 7.352l2.448 4.032c1.624 2.608 3.28 5.2 4.976 7.784l2.12 3.272c2.344 3.496 4.736 6.976 7.208 10.408l0.208 0.264 1.216 1.64c2.136 2.944 4.336 5.856 6.568 8.744l2.472 3.144c1.992 2.504 4.016 4.984 6.072 7.472l2.32 2.768c2.76 3.248 5.584 6.496 8.456 9.664l0.168 0.176 0.328 0.36c2.808 3.064 5.68 6.064 8.6 9.064l2.752 2.776c2.256 2.272 4.552 4.504 6.864 6.728l2.808 2.672c3.096 2.912 6.216 5.776 9.408 8.56l0.144 0.128 1.64 1.392c2.808 2.44 5.664 4.84 8.544 7.216l3.536 2.824c2.352 1.88 4.728 3.744 7.12 5.568l3.816 2.888c2.64 1.944 5.304 3.856 7.992 5.736l2.904 2.064 0.808 0.576c2.544 1.76 5.16 3.448 7.76 5.136l3.36 2.24c4 2.52 8.056 5.024 12.152 7.44l3.36 1.896c3.016 1.736 6.048 3.448 9.12 5.112l5.048 2.608 6.528 3.392 1.504 0.728 2.672 1.288c3.416 1.632 6.864 3.24 10.344 4.792l2.184 0.976c3.984 1.744 8.008 3.416 12.064 5.024l2.944 1.152c3.752 1.456 7.56 2.872 11.384 4.216l1.432 0.496c4.192 1.472 8.432 2.824 12.696 4.16l3.064 0.912c4.336 1.312 8.632 2.864 13.104 3.696 284.424 51.864 367.04-170.912 367.04-170.912-69.392 90.4-192.552 114.24-309.248 87.696-4.424-1-8.712-2.384-13.024-3.648l-3.248-0.992a358.344 358.344 0 0 1-12.544-4.08l-1.72-0.616a396.296 396.296 0 0 1-11.056-4.104l-3.104-1.216c-4.008-1.584-8-3.24-11.936-4.96l-2.384-1.064a443.184 443.184 0 0 1-10.072-4.68l-2.912-1.4c-2.616-1.272-5.2-2.624-7.792-3.96l-5.192-2.728c-3.16-1.68-6.256-3.44-9.336-5.232l-3.152-1.752a465.624 465.624 0 0 1-12.16-7.456l-3.28-2.184a324.12 324.12 0 0 1-8.648-5.752l-2.792-1.96a433.624 433.624 0 0 1-8.176-5.904l-3.624-2.744c-2.48-1.896-4.944-3.808-7.376-5.768l-3.288-2.64c-3.104-2.544-6.168-5.12-9.192-7.752l-1.008-0.84a438.376 438.376 0 0 1-9.664-8.784l-2.72-2.624a265.264 265.264 0 0 1-6.944-6.808l-2.72-2.72c-2.896-2.96-5.736-5.96-8.52-9.008l-0.424-0.456a335.784 335.784 0 0 1-8.64-9.832l-2.264-2.688a357.28 357.28 0 0 1-6.216-7.688l-2.28-2.84a419.752 419.752 0 0 1-7.184-9.56c-64.784-88.376-88.064-210.264-36.28-310.36m136.648-13.008c-42.528 61.2-40.224 143.144-7.04 207.864a269.976 269.976 0 0 0 18.808 31.4c6.368 9.144 13.44 20.008 21.896 27.344 3.064 3.376 6.272 6.672 9.544 9.904l2.512 2.488c3.176 3.08 6.408 6.112 9.744 9.056l0.4 0.344 0.096 0.096c3.696 3.24 7.512 6.352 11.384 9.424l2.584 2.016c3.888 2.976 7.848 5.904 11.912 8.696l0.344 0.264 5.44 3.576 2.576 1.704c2.904 1.864 5.84 3.672 8.832 5.408l1.248 0.736c2.576 1.48 5.184 2.936 7.8 4.36l2.776 1.44 5.456 2.832 0.824 0.376c3.752 1.84 7.528 3.624 11.392 5.304l2.512 1.04c3.088 1.304 6.2 2.584 9.336 3.784l4 1.472c2.848 1.056 5.696 2.024 8.576 2.984l3.872 1.24c4.088 1.264 8.136 2.872 12.392 3.584 219.6 36.376 270.296-132.704 270.296-132.704-45.696 65.824-134.2 97.224-228.64 72.712a277.808 277.808 0 0 1-12.44-3.592l-3.736-1.208a232 232 0 0 1-8.696-2.992l-3.928-1.464a309.384 309.384 0 0 1-9.368-3.784l-2.52-1.064a262.24 262.24 0 0 1-11.456-5.328l-5.744-2.92-3.312-1.704c-2.448-1.328-4.88-2.704-7.272-4.112l-1.736-0.984a246 246 0 0 1-8.8-5.376l-2.656-1.768-5.696-3.776a298.912 298.912 0 0 1-11.872-8.68l-2.672-2.112c-41.336-32.632-74.104-77.24-89.68-127.816-16.328-52.456-12.808-111.336 15.48-159.128m118.776-4.144c-25.072 36.896-27.536 82.728-10.136 123.48 18.344 43.256 55.936 77.184 99.816 93.28l5.456 1.88 2.4 0.768c2.584 0.816 5.152 1.76 7.824 2.256 121.256 23.432 154.144-62.216 162.896-74.832-28.808 41.48-77.224 51.44-136.632 37.016a150.696 150.696 0 0 1-14.368-4.44 178.424 178.424 0 0 1-17.072-7.088 177.52 177.52 0 0 1-29.928-18.256c-53.16-40.336-86.176-117.272-51.488-179.936" fill="#0868AC" p-id="11338"></path><path d="M530.872 770.36h-33.808a4.448 4.448 0 0 0-4.136 3.336l-12 55.52-12 55.52a4.432 4.432 0 0 1-4.128 3.336h-23.928c-23.672 0-20.936-16.376-16.088-38.808l0.144-0.68 0.528-2.832 0.096-0.528 1.08-5.76 1.16-6.168 1.232-6.28 5.456-26.656 5.464-26.656a2.688 2.688 0 0 0-2.728-3.352h-34.696a4.4 4.4 0 0 0-4.112 3.344l-7.464 35.392-7.456 35.4-0.016 0.048-0.688 3.296c-8.592 39.224-6.32 76.64 40.384 77.816l1.36 0.024h73.304a4.432 4.432 0 0 0 4.128-3.336l15.808-74.312 15.808-74.32c0.392-1.84-0.824-3.336-2.704-3.344z m-362.048-0.392h-37.12a4.496 4.496 0 0 0-4.168 3.328l-3.52 15.536-3.52 15.536c-0.408 1.832 0.784 3.328 2.664 3.328h37.408a4.448 4.448 0 0 0 4.144-3.336l3.4-15.528 3.4-15.528c0.392-1.832-0.808-3.336-2.688-3.336z m-10.768 48.352H120.64a4.504 4.504 0 0 0-4.168 3.328l-5.256 23.28-5.248 23.272-1.464 6.672-5.048 23.76-5.04 23.768c-0.392 1.832-1.2 4.792-1.8 6.568 0 0-6.992 20.8-18.744 20.56l-1.472-0.032-10.168-0.184h-0.008a4.464 4.464 0 0 0-4.192 3.256l-3.88 16.312-3.872 16.304c-0.44 1.824 0.744 3.328 2.608 3.36 6.664 0.08 21.592 0.248 30.624 0.248 29.352 0 44.832-16.264 54.744-63.064l11.608-53.712 10.888-50.376c0.392-1.816-0.824-3.32-2.696-3.32z m688.936-12.592l-1.552-6.408-1.528-6.56-0.776-3.312c-3.04-11.816-11.96-18.624-31.336-18.624l-30.16-0.032-27.776-0.04h-31.256a4.416 4.416 0 0 0-4.12 3.336l-1.384 6.528-1.632 7.712-0.456 2.168-14.072 65.92-13.36 62.576c-0.4 1.84-0.528 4.096-0.304 5.008 0.224 0.92 3.832 1.672 5.704 1.672h28.192c1.88 0 4.256-0.336 5.28-0.752s2.536-4.104 2.912-5.936l5.008-24.792 5.016-24.8 0.008-0.04 0.672-3.304 6.08-28.48 5.368-25.152a4.44 4.44 0 0 1 4.12-3.336l88.712-0.04c1.88 0.016 3.064-1.48 2.64-3.312z m114.2-57.92l-6.832 0.024h-28.392a7.232 7.232 0 0 0-5.336 2.824l-62.792 91.984c-1.056 1.552-2.264 1.328-2.68-0.496l-4.624-20.264a4.496 4.496 0 0 0-4.176-3.328h-40.36c-1.88 0-2.992 1.472-2.48 3.272l18.088 63.368c0.512 1.808 0.552 4.768 0.088 6.592l-7.88 30.664c-0.472 1.824 0.68 3.304 2.56 3.304h39.896a4.64 4.64 0 0 0 4.256-3.304l7.888-30.664a20.16 20.16 0 0 1 2.904-6.04l101.936-135.288c1.136-1.504 0.52-2.728-1.352-2.712l-10.712 0.064z m-320.688 79.352v-0.032a4.112 4.112 0 0 1-3.992 3.528h-51.176c-1.776 0-2.672-1.2-2.408-2.688l0.048-0.12-0.032 0.016 0.024-0.168 0.232-0.872c4.888-12.992 14.84-21.52 33.552-21.52 21.072-0.008 25.184 10.28 23.752 21.856z m-15.016-59.072c-65.688 0-81.256 39.872-89.992 80.12-8.728 41.024-7.984 79.368 60 79.368h8.24l2.048-0.008h0.48l8.16-0.024h0.144c17.952-0.072 35.96-0.208 43.248-0.264a4.424 4.424 0 0 0 4.072-3.36l2.752-13.448 0.536-2.616 3.28-16.048a2.68 2.68 0 0 0-2.728-3.344h-61.112c-24.312 0-31.528-6.456-28.864-25.448H673.44l-0.008 0.008 0.064-0.008a4.024 4.024 0 0 0 3.56-2.52l0.232-0.848-0.008 0.008c14.504-54.712 10.344-91.56-51.792-91.568z m-310.48 58.864l-0.928 3.272v0.008l-7.376 26.144-7.376 26.136a4.768 4.768 0 0 1-4.344 3.288h-39.04c-29.616 0-36.832-23.168-29.616-57.328 7.208-34.944 21.344-56.664 50.496-58.864 39.84-3.008 47.808 25.008 38.184 57.344z m26.784 56.84s18.408-44.704 22.584-70.512c5.704-34.552-11.6-84.68-78.432-84.68-66.448 0-95.312 47.848-106.32 99.872-11.008 52.4 3.416 98.344 69.488 97.968l52.128-0.192 48.712-0.176a4.72 4.72 0 0 0 4.272-3.312l8.488-32.368c0.472-1.824-0.672-3.312-2.552-3.328l-8.136-0.048-8.136-0.048c-1.592-0.008-2.504-1.048-2.312-2.416l0.216-0.76z m328.96-29.928a2.24 2.24 0 1 1-4.48 0.008 2.24 2.24 0 0 1 4.48-0.008z" fill="#131B28" p-id="11339"></path></svg>