<?xml version="1.0" standalone="no"?><!DOCTYPE svg PUBLIC "-//W3C//DTD SVG 1.1//EN" "http://www.w3.org/Graphics/SVG/1.1/DTD/svg11.dtd"><svg t="1602752318337" class="icon" viewBox="0 0 1549 1024" version="1.1" xmlns="http://www.w3.org/2000/svg" p-id="2141" xmlns:xlink="http://www.w3.org/1999/xlink" width="302.5390625" height="200"><defs><style type="text/css"></style></defs><path d="M1321.64 386.917c-14.463-96.983-44.401-206.398-84.932-327.547a480.729 480.729 0 0 1-55.69 99.203 522.465 522.465 0 0 0-823.12 95.777 346.132 346.132 0 0 1 213.566 89.753 360.975 360.975 0 0 0-201.768-59.497 369.664 369.664 0 0 0 0 739.392h852.487a326.152 326.152 0 0 0 99.456-637.08z m-796.48 523.1a44.4 44.4 0 1 1-6.342-62.859 44.4 44.4 0 0 1 6.343 62.858z m709.328-156.543c-129.015 171.829-404.424 114.172-581.074 122.164 0 0-31.27 1.776-62.794 6.977 0 0 11.924-5.074 27.147-10.339 124.004-42.878 182.676-51.504 258.093-90.26 141.574-72.562 282.576-230.564 311.183-394.718-53.915 157.938-217.879 293.803-367.127 348.86-102.248 37.676-287.08 74.465-287.08 74.529l-7.485-3.996c-125.716-61.146-129.205-333.32 99.013-421.042 100.09-38.502 195.805-17.317 303.952-43.132 115.377-27.402 248.959-114.172 303.254-227.013 60.955 180.646 134.089 463.223 2.918 637.97z" fill="#77BC1F" p-id="2142"></path></svg>