<?xml version="1.0" standalone="no"?><!DOCTYPE svg PUBLIC "-//W3C//DTD SVG 1.1//EN" "http://www.w3.org/Graphics/SVG/1.1/DTD/svg11.dtd"><svg t="1602751107072" class="icon" viewBox="0 0 1024 1024" version="1.1" xmlns="http://www.w3.org/2000/svg" p-id="11599" xmlns:xlink="http://www.w3.org/1999/xlink" width="200" height="200"><defs><style type="text/css"></style></defs><path d="M807.91 475L692 274.25a74.05 74.05 0 0 0-64.14-37H396.11a74.05 74.05 0 0 0-64.14 37L216.09 475a74.06 74.06 0 0 0 0 74.06L332 749.75a74.05 74.05 0 0 0 64.14 37h231.75a74.05 74.05 0 0 0 64.14-37L807.91 549a74.06 74.06 0 0 0 0-74zM489.48 348.19a22.52 22.52 0 0 1 45 0v152.7a22.52 22.52 0 0 1-45 0zM512 682.34c-93.92 0-170.34-76.42-170.34-170.34a169.8 169.8 0 0 1 78.13-143.24 22.52 22.52 0 1 1 24.41 37.84 125.31 125.31 0 1 0 136.08 0.31 22.52 22.52 0 1 1 24.58-37.73A169.92 169.92 0 0 1 682.34 512c0 93.92-76.42 170.34-170.34 170.34z" fill="#1AB394" p-id="11600"></path></svg>