<?xml version="1.0" standalone="no"?><!DOCTYPE svg PUBLIC "-//W3C//DTD SVG 1.1//EN" "http://www.w3.org/Graphics/SVG/1.1/DTD/svg11.dtd"><svg t="1602754025706" class="icon" viewBox="0 0 1024 1024" version="1.1" xmlns="http://www.w3.org/2000/svg" p-id="9329" width="48" height="48" xmlns:xlink="http://www.w3.org/1999/xlink"><defs><style type="text/css"></style></defs><path d="M450.06263 385.786727c221.35304 0 395.145336-69.019742 437.990218-159.498483v-33.303488c0-107.148763-197.408161-192.838528-437.990218-192.838528S14.412064 85.835993 14.412064 192.984756v30.927279c42.844882 102.213559 214.260969 161.874692 435.650566 161.874692z" fill="#0e932e" p-id="9330"></path><path d="M820.714731 416.384992a431.592731 431.592731 0 0 0 28.075827-50.48531L884.324027 292.456535l1.352611 2.814894v-16.743137c-40.468673 92.818393-219.013388 161.874692-435.614008 161.874693-219.013388 0-402.310521-71.432509-438.026776-164.250902v152.333298c42.844882 90.442183 221.389597 159.498483 435.614009 159.498482a814.528007 814.528007 0 0 0 299.329264-52.09382c0.913927-2.412766 1.86441-5.48356 2.74178-7.60387a304.337582 304.337582 0 0 1 70.993824-111.901181z" fill="#0e932e" p-id="9331"></path><path d="M729.395177 598.037057a831.417372 831.417372 0 0 1-279.332547 44.709293c-214.260969 0-395.181893-69.056299-435.650566-159.498483v147.580879c40.468673 90.442183 219.013388 159.498483 435.650566 159.498483a847.502481 847.502481 0 0 0 271.765235-41.748171 422.965264 422.965264 0 0 1 7.567312-150.542001z" fill="#0e932e" p-id="9332"></path><path d="M450.06263 842.750062c-214.260969 0-395.181893-69.019742-435.650566-159.461925v140.415694c0 109.671201 195.214737 199.967156 438.026775 199.967155 158.877013 0 296.989611-37.836564 373.722894-95.267716a482.114598 482.114598 0 0 1-91.392667-132.080682 829.479847 829.479847 0 0 1-284.706436 46.427474z" fill="#0e932e" p-id="9333"></path><path d="M884.360584 383.044947a301.961372 301.961372 0 0 1-40.212774 65.035022 273.519974 273.519974 0 0 0-57.906394 95.048373c-19.302131 47.195173-45.732891 166.590554-15.719538 236.633894a459.449216 459.449216 0 0 0 92.160365 129.338903 379.754811 379.754811 0 0 1 11.698262 75.124772h28.697297l4.569634-76.76984a454.769912 454.769912 0 0 0 90.332512-127.547606c30.013352-70.04334 3.655707-189.438721-15.719539-236.633894a273.519974 273.519974 0 0 0-57.906394-95.048374 300.170076 300.170076 0 0 1-40.212773-65.035022" fill="#0e932e" p-id="9334"></path></svg>